<mxfile host="65bd71144e">
    <diagram id="1-w8iqB-PxnLIspFrz6-" name="Page-1">
        <mxGraphModel dx="694" dy="568" grid="1" gridSize="10" guides="1" tooltips="1" connect="1" arrows="1" fold="1" page="1" pageScale="1" pageWidth="1100" pageHeight="850" background="none" math="0" shadow="0" extFonts="Michroma^https://fonts.googleapis.com/css?family=Michroma">
            <root>
                <mxCell id="0"/>
                <mxCell id="1" parent="0"/>
                <mxCell id="9_ceQMcaRuctNEn4qLia-35" value="" style="shape=singleArrow;direction=south;whiteSpace=wrap;html=1;strokeColor=#E1D5E7;strokeWidth=2;fillColor=#FFB366;fontSize=14;arrowWidth=0.7785714285714286;arrowSize=0.30980392156862746;opacity=50;fontFamily=Michroma;" parent="1" vertex="1">
                    <mxGeometry x="240" y="70" width="280" height="510" as="geometry"/>
                </mxCell>
                <mxCell id="2" value="&lt;font color=&quot;#cccccc&quot;&gt;GITHUB COPILOT&lt;/font&gt; FUNDAMENTALS&lt;br style=&quot;font-size: 14px&quot;&gt;&lt;b style=&quot;font-size: 14px&quot;&gt;&lt;font color=&quot;#00ff00&quot; style=&quot;font-size: 14px&quot;&gt;TRAINING&lt;/font&gt;&lt;/b&gt;" style="rounded=1;whiteSpace=wrap;html=1;fillColor=#4D4D4D;fontColor=#ffffff;strokeColor=#999999;fontFamily=Michroma;fontSource=https%3A%2F%2Ffonts.googleapis.com%2Fcss%3Ffamily%3Dmichroma;fontSize=14;" parent="1" vertex="1">
                    <mxGeometry x="120" y="80" width="240" height="80" as="geometry"/>
                </mxCell>
                <mxCell id="3" value="&lt;font color=&quot;#cccccc&quot;&gt;GITHUB COPILOT&lt;/font&gt; FUNDAMENTALS&lt;br style=&quot;font-size: 14px&quot;&gt;&lt;b style=&quot;font-size: 14px&quot;&gt;&lt;font color=&quot;#00ff00&quot; style=&quot;font-size: 14px&quot;&gt;WEBINAR&lt;/font&gt;&lt;/b&gt;" style="rounded=1;whiteSpace=wrap;html=1;fillColor=#4D4D4D;fontColor=#ffffff;strokeColor=#999999;fontFamily=Michroma;fontSource=https%3A%2F%2Ffonts.googleapis.com%2Fcss%3Ffamily%3Dmichroma;fontSize=14;" parent="1" vertex="1">
                    <mxGeometry x="400" y="80" width="240" height="80" as="geometry"/>
                </mxCell>
                <mxCell id="4" value="&lt;font color=&quot;#cccccc&quot;&gt;GITHUIB COPILOT&lt;/font&gt;&lt;br style=&quot;font-size: 14px&quot;&gt;&lt;font color=&quot;#00ff00&quot; style=&quot;font-size: 14px&quot;&gt;HACKATHONS&lt;/font&gt;" style="rounded=1;whiteSpace=wrap;html=1;fillColor=#4D4D4D;fontColor=#ffffff;strokeColor=#999999;fontFamily=Michroma;fontSource=https%3A%2F%2Ffonts.googleapis.com%2Fcss%3Ffamily%3Dmichroma;fontSize=14;" parent="1" vertex="1">
                    <mxGeometry x="120" y="320" width="520" height="80" as="geometry"/>
                </mxCell>
                <mxCell id="6" value="&lt;font color=&quot;#cccccc&quot;&gt;GITHUB COPILOT&lt;/font&gt; INTERMEDIATE&lt;br style=&quot;font-size: 14px&quot;&gt;&lt;b style=&quot;font-size: 14px&quot;&gt;&lt;font color=&quot;#00ff00&quot; style=&quot;font-size: 14px&quot;&gt;WEBINAR&lt;/font&gt;&lt;/b&gt;" style="rounded=1;whiteSpace=wrap;html=1;fillColor=#4D4D4D;fontColor=#ffffff;strokeColor=#999999;fontFamily=Michroma;fontSource=https%3A%2F%2Ffonts.googleapis.com%2Fcss%3Ffamily%3Dmichroma;fontSize=14;" parent="1" vertex="1">
                    <mxGeometry x="400" y="200" width="240" height="80" as="geometry"/>
                </mxCell>
                <mxCell id="7" value="&lt;font color=&quot;#cccccc&quot;&gt;GITHUB COPILOT&lt;/font&gt; INTERMEDIATE&lt;br style=&quot;font-size: 14px&quot;&gt;&lt;b style=&quot;font-size: 14px&quot;&gt;&lt;font color=&quot;#00ff00&quot; style=&quot;font-size: 14px&quot;&gt;TRAINING&lt;/font&gt;&lt;/b&gt;" style="rounded=1;whiteSpace=wrap;html=1;fillColor=#4D4D4D;fontColor=#ffffff;strokeColor=#999999;fontFamily=Michroma;fontSource=https%3A%2F%2Ffonts.googleapis.com%2Fcss%3Ffamily%3Dmichroma;fontSize=14;" parent="1" vertex="1">
                    <mxGeometry x="120" y="200" width="240" height="80" as="geometry"/>
                </mxCell>
                <mxCell id="8" value="&lt;font color=&quot;#cccccc&quot;&gt;GITHUB COPILOT &lt;br style=&quot;font-size: 14px&quot;&gt;&lt;/font&gt;&lt;font color=&quot;#00ff00&quot; style=&quot;font-size: 14px&quot;&gt;OFFICE HOURS&lt;/font&gt;" style="rounded=1;whiteSpace=wrap;html=1;fillColor=#4D4D4D;fontColor=#ffffff;strokeColor=#999999;fontFamily=Michroma;fontSource=https%3A%2F%2Ffonts.googleapis.com%2Fcss%3Ffamily%3Dmichroma;fontSize=14;" parent="1" vertex="1">
                    <mxGeometry x="120" y="440" width="520" height="80" as="geometry"/>
                </mxCell>
                <mxCell id="9" value="&lt;font color=&quot;#cccccc&quot;&gt;GITHUB COPILOT &lt;br style=&quot;font-size: 14px&quot;&gt;&lt;/font&gt;&lt;font color=&quot;#00ff00&quot; style=&quot;font-size: 14px&quot;&gt;EXPERT HUB&lt;/font&gt;" style="rounded=1;whiteSpace=wrap;html=1;fillColor=#4D4D4D;fontColor=#ffffff;strokeColor=#999999;fontFamily=Michroma;fontSource=https%3A%2F%2Ffonts.googleapis.com%2Fcss%3Ffamily%3Dmichroma;fontSize=14;" parent="1" vertex="1">
                    <mxGeometry x="120" y="560" width="520" height="80" as="geometry"/>
                </mxCell>
            </root>
        </mxGraphModel>
    </diagram>
</mxfile>